<?xml version="1.0" standalone="no"?>
<!DOCTYPE svg PUBLIC "-//W3C//DTD SVG 20010904//EN"
 "http://www.w3.org/TR/2001/REC-SVG-20010904/DTD/svg10.dtd">
<svg version="1.0" xmlns="http://www.w3.org/2000/svg"
 width="500.000000pt" height="161.000000pt" viewBox="0 0 500.000000 161.000000"
 preserveAspectRatio="xMidYMid meet">

<g transform="translate(0.000000,161.000000) scale(0.100000,-0.100000)"
fill="#000000" stroke="none">
<path d="M897 1248 c-80 -200 -153 -380 -162 -400 l-15 -38 98 0 98 0 29 80
29 80 152 0 151 0 30 -77 29 -78 97 -3 c53 -1 97 -1 97 0 0 2 -72 181 -159
398 l-160 395 -84 3 -84 3 -146 -363z m272 2 c23 -57 41 -107 41 -112 0 -4
-39 -8 -86 -8 -65 0 -85 3 -82 13 30 80 83 216 85 214 1 -1 20 -49 42 -107z"/>
<path d="M1560 1210 l0 -400 230 0 230 0 0 80 0 80 -140 0 -140 0 0 320 0 320
-90 0 -90 0 0 -400z"/>
<path d="M2060 1530 l0 -80 95 0 95 0 0 -320 0 -320 90 0 90 0 0 320 0 320 95
0 95 0 0 80 0 80 -280 0 -280 0 0 -80z"/>
<path d="M2921 1592 c-15 -28 -311 -764 -311 -774 0 -4 42 -8 94 -8 l93 0 30
78 29 77 153 0 153 0 28 -75 27 -75 97 -3 c53 -1 96 1 96 5 0 4 -72 184 -158
398 l-158 390 -82 3 c-70 2 -82 0 -91 -16z m135 -352 l42 -110 -90 0 c-82 0
-89 2 -83 18 4 9 23 59 42 110 20 50 39 92 42 92 3 0 25 -49 47 -110z"/>
<path d="M3450 1210 l0 -400 90 0 90 0 0 160 0 160 130 0 131 0 -3 78 -3 77
-127 3 -128 3 0 79 0 80 140 0 141 0 -3 78 -3 77 -227 3 -228 2 0 -400z"/>
<path d="M4064 1006 c-43 -19 -64 -53 -64 -104 0 -62 40 -102 102 -102 52 0
85 21 104 66 37 88 -54 178 -142 140z"/>
<path d="M3410 350 l0 -210 45 0 45 0 0 79 c0 83 12 111 49 111 33 0 41 -22
41 -107 l0 -83 45 0 45 0 0 91 c0 90 -9 123 -39 146 -27 20 -71 23 -107 8
l-34 -14 0 95 0 94 -45 0 -45 0 0 -210z"/>
<path d="M435 536 c-44 -20 -67 -50 -72 -98 -6 -56 18 -88 97 -128 62 -31 73
-45 58 -72 -12 -25 -74 -23 -117 3 -18 11 -34 19 -36 17 -1 -2 -10 -18 -19
-36 -14 -26 -15 -37 -5 -48 20 -24 116 -47 165 -39 84 12 139 91 110 159 -16
39 -29 50 -105 86 -45 22 -61 35 -61 50 0 30 37 40 88 25 l43 -13 17 34 c19
40 14 46 -48 64 -46 13 -79 12 -115 -4z"/>
<path d="M1452 528 c-28 -28 -3 -88 37 -88 10 0 26 9 36 20 27 30 10 74 -30
78 -17 2 -36 -3 -43 -10z"/>
<path d="M2381 398 c-7 -79 -15 -169 -18 -200 l-6 -58 45 0 45 0 7 53 c3 28 6
72 7 97 1 91 13 84 53 -35 37 -110 40 -115 67 -115 27 0 29 5 66 116 43 132
47 130 59 -28 l6 -88 45 0 46 0 -6 58 c-3 31 -11 121 -18 200 l-12 143 -50 -3
-50 -3 -41 -107 c-23 -60 -43 -108 -46 -108 -3 0 -23 48 -46 108 l-41 107 -50
3 -50 3 -12 -143z"/>
<path d="M3742 528 c-28 -28 -3 -88 37 -88 10 0 26 9 36 20 27 30 10 74 -30
78 -17 2 -36 -3 -43 -10z"/>
<path d="M746 390 c-41 -13 -74 -48 -87 -91 -14 -46 -7 -78 26 -118 50 -58
146 -65 206 -13 l31 25 -33 18 c-29 15 -36 15 -54 3 -27 -19 -59 -18 -78 4
-10 10 -17 22 -17 25 0 4 41 7 91 7 l92 0 -6 41 c-6 49 -38 86 -86 99 -41 11
-46 11 -85 0z m84 -70 c10 -19 8 -20 -40 -20 -48 0 -50 1 -40 20 7 13 21 20
40 20 19 0 33 -7 40 -20z"/>
<path d="M1713 385 c-18 -8 -33 -10 -33 -5 0 6 -20 10 -45 10 l-45 0 0 -125 0
-125 45 0 45 0 0 79 c0 83 12 111 49 111 33 0 41 -22 41 -107 l0 -83 45 0 45
0 0 90 c0 93 -9 129 -39 147 -31 19 -75 23 -108 8z"/>
<path d="M1975 386 c-50 -22 -68 -51 -73 -114 -4 -51 -1 -62 22 -89 41 -49 96
-62 160 -37 25 10 20 -32 -6 -50 -28 -20 -58 -20 -86 -1 -19 14 -24 14 -52 0
-37 -19 -37 -25 -4 -56 23 -21 35 -24 105 -24 75 0 80 1 111 33 l33 32 3 155
3 155 -45 0 c-25 0 -46 -4 -46 -9 0 -6 -16 -3 -35 5 -42 17 -51 17 -90 0z
m113 -78 c7 -7 12 -26 12 -43 0 -17 -5 -36 -12 -43 -16 -16 -70 -16 -86 0 -17
17 -15 64 4 82 18 19 65 21 82 4z"/>
<path d="M2913 393 c-34 -6 -81 -59 -89 -98 -20 -107 78 -195 168 -151 20 11
34 13 36 6 2 -5 21 -10 43 -10 l39 0 0 125 0 125 -39 0 c-22 0 -41 -5 -43 -11
-2 -6 -14 -5 -33 5 -30 16 -41 17 -82 9z m99 -90 c39 -35 7 -98 -48 -91 -18 2
-34 13 -43 29 -13 24 -13 29 2 53 20 30 61 35 89 9z"/>
<path d="M3235 382 c-23 -11 -49 -32 -60 -48 -23 -36 -24 -104 -1 -139 26 -39
97 -68 147 -60 45 8 56 23 39 55 -9 17 -17 20 -37 15 -39 -9 -73 18 -73 60 0
42 34 69 74 59 21 -5 28 -1 37 20 15 33 6 43 -46 51 -28 4 -52 0 -80 -13z"/>
<path d="M4003 385 c-18 -8 -33 -10 -33 -5 0 6 -20 10 -45 10 l-45 0 0 -125 0
-125 45 0 45 0 0 79 c0 83 12 111 49 111 33 0 41 -22 41 -107 l0 -83 45 0 45
0 0 90 c0 93 -9 129 -39 147 -31 19 -75 23 -108 8z"/>
<path d="M4265 380 c-48 -24 -75 -65 -75 -115 0 -109 121 -167 222 -107 38 22
42 39 11 55 -23 12 -30 12 -54 -2 -32 -18 -82 -6 -87 21 -3 15 8 18 85 20 l88
3 -3 33 c-3 47 -27 78 -73 96 -51 21 -66 20 -114 -4z m93 -52 c21 -21 13 -28
-33 -28 -25 0 -45 4 -45 8 0 15 24 32 45 32 12 0 26 -5 33 -12z"/>
<path d="M4563 392 c-67 -20 -87 -94 -35 -130 15 -11 37 -23 50 -26 33 -11 29
-39 -5 -34 -16 3 -35 8 -44 12 -18 8 -54 -37 -44 -54 10 -16 86 -32 125 -25
51 9 80 37 80 80 0 40 -28 71 -71 80 -33 8 -46 22 -31 37 7 7 20 7 41 0 29
-10 32 -9 46 18 l15 29 -37 10 c-42 12 -57 12 -90 3z"/>
<path d="M930 383 c1 -5 29 -60 64 -123 57 -103 67 -115 93 -118 28 -3 32 1
57 57 15 34 29 61 31 61 2 0 16 -27 31 -61 25 -56 29 -60 57 -57 26 3 36 15
93 118 35 63 63 118 64 123 0 4 -21 7 -48 7 l-48 0 -29 -67 -29 -68 -31 68
c-27 61 -33 67 -60 67 -27 0 -33 -6 -60 -67 l-31 -68 -29 68 -29 67 -48 0
c-27 0 -48 -3 -48 -7z"/>
<path d="M1440 265 l0 -125 45 0 45 0 0 125 0 125 -45 0 -45 0 0 -125z"/>
<path d="M3730 265 l0 -125 45 0 45 0 0 125 0 125 -45 0 -45 0 0 -125z"/>
</g>
</svg>
